<?xml version="1.0" encoding="utf-8"?>
<!-- Generator: Adobe Illustrator 14.0.0, SVG Export Plug-In . SVG Version: 6.00 Build 43363)  -->
<!DOCTYPE svg PUBLIC "-//W3C//DTD SVG 1.1//EN" "http://www.w3.org/Graphics/SVG/1.1/DTD/svg11.dtd">
<svg version="1.1" id="图层_1" xmlns="http://www.w3.org/2000/svg" xmlns:xlink="http://www.w3.org/1999/xlink" x="0px" y="0px"
	 width="252.001px" height="83.999px" viewBox="172.271 378.704 252.001 83.999"
	 enable-background="new 172.271 378.704 252.001 83.999" xml:space="preserve">
<g>
	<g>
		
			<linearGradient id="SVGID_1_" gradientUnits="userSpaceOnUse" x1="298.2922" y1="311.0083" x2="298.2922" y2="499.6719" gradientTransform="matrix(1 0 0 -1 -0.02 841.875)">
			<stop  offset="0" style="stop-color:#FFFFFF"/>
			<stop  offset="0.4647" style="stop-color:#ADCAEA"/>
			<stop  offset="1" style="stop-color:#3696D2"/>
		</linearGradient>
		<path fill="url(#SVGID_1_)" d="M417.186,378.704h-60.163c-0.375,3.155-3.257,5.149-6.5,4.75c-2.5,3.25-5.25,6.25-10.25,4.25
			c-1.535,3.375-7.253,3.985-10.25,0.75c-5.199,0.851-5.761-2.02-8-5c-5.187-0.246-7.351,0.954-10.5-4.75H179.357
			c-3.913,0-7.086,3.173-7.086,7.086v59.653c5.376-0.447,10.461,1.27,15,7.51c3.001-0.473,6.583,1.834,7.25,5.5
			c6.796,0.68,6.18,1.547,6.75,4.25h215.914c3.914,0,7.087-3.172,7.087-7.086V385.79C424.272,381.876,421.1,378.704,417.186,378.704
			z"/>
		<path fill="#F8C658" d="M367.383,397.079c2.875,9,7,4.375,8.125,0c0,0,2.875,10.875,7.875,1c0,0-0.5,10.875,7,2.5
			c0,0-3.125,10.625,6.125,5.125c0,0-4.875,9.875,5.125,5.625c0,0-7.375,7.875,2.875,7.25c0,0-9.5,6.375,1.375,8.125
			c0,0-10.75,2.625-0.75,7.75c0,0-10.375-0.5-3.5,6.75c0,0-9.125-2.25-5,6.125c0,0-8.375-4.625-6,4.875c0,0-8.125-6.5-6.875,3
			c0,0-6.5-8.25-8.125,1.125c0,0-3.625-10.375-8.25-0.5c0,0,0.75-10.75-7.875-3.625c0,0,4.125-10.375-6.375-4.75
			c0,0,6.25-8.875-4.625-5.875c0,0,7.875-8.125-3.375-7c0,0,10.625-6.375-0.5-7.875c0,0,10.625-3.5,0-8c0,0,13.25,1.125,4-7.875
			c0,0,10.5,4.625,4.625-6c0,0,9.875,6.5,6.875-4.625C360.133,400.204,366.998,408.828,367.383,397.079z"/>
		
			<linearGradient id="SVGID_2_" gradientUnits="userSpaceOnUse" x1="348.1028" y1="368.1021" x2="386.3393" y2="434.3297" gradientTransform="matrix(1 0 0 -1 -0.02 841.875)">
			<stop  offset="0" style="stop-color:#FFFFFF"/>
			<stop  offset="1" style="stop-color:#DABD27"/>
		</linearGradient>
		<circle fill="url(#SVGID_2_)" cx="375.258" cy="426.703" r="20"/>
		<path fill="#F9E550" d="M375.258,406.954c-4.692,0-9,1.628-12.41,4.334c-0.127,0.935-0.215,1.882-0.215,2.854
			c0,11.219,8.73,20.313,19.5,20.313c4.992,0,9.531-1.971,12.98-5.184c0.088-0.764,0.145-1.531,0.145-2.316
			C395.258,415.908,386.303,406.954,375.258,406.954z"/>
	</g>
	<path fill="#FFFFFF" d="M357.197,378.704c-0.378,3.155-3.279,5.149-6.546,4.75c-2.517,3.25-5.287,6.25-10.321,4.25
		c-1.546,3.375-7.304,3.985-10.322,0.75c-5.234,0.851-5.8-2.02-8.056-5c-5.223-0.246-7.402,0.954-10.573-4.75H357.197z"/>
	<path fill="#FFFFFF" d="M177.863,462.703c-2.583,0-5.592-2.15-5.592-5.983c0-3.083,0-11.276,0-11.276
		c5.376-0.447,10.461,1.27,15,7.51c3.001-0.473,6.583,1.834,7.25,5.5c6.796,0.68,6.18,1.547,6.75,4.25
		C201.271,462.703,180.529,462.703,177.863,462.703z"/>
</g>
</svg>
