<?xml version="1.0" encoding="utf-8"?>
<!-- Generator: Adobe Illustrator 14.0.0, SVG Export Plug-In . SVG Version: 6.00 Build 43363)  -->
<!DOCTYPE svg PUBLIC "-//W3C//DTD SVG 1.1//EN" "http://www.w3.org/Graphics/SVG/1.1/DTD/svg11.dtd">
<svg version="1.1" id="图层_1" xmlns="http://www.w3.org/2000/svg" xmlns:xlink="http://www.w3.org/1999/xlink" x="0px" y="0px"
	 width="251.668px" height="83.669px" viewBox="172.365 378.957 251.668 83.669"
	 enable-background="new 172.365 378.957 251.668 83.669" xml:space="preserve">
<g>
	<path fill="#26235D" d="M424.033,455.539c0,3.916-3.174,7.088-7.088,7.088H179.451c-3.913,0-7.086-3.172-7.086-7.088v-69.495
		c0-3.914,3.173-7.087,7.086-7.087h237.494c3.914,0,7.088,3.173,7.088,7.087V455.539L424.033,455.539z"/>
	<g opacity="0.17">
		
			<image overflow="visible" enable-background="new    " width="696" height="613" xlink:href="868577E6.png"  transform="matrix(0.239 0 0 0.2384 267.1975 352.5811)">
		</image>
	</g>
	<ellipse fill="#F9F8F7" cx="355.141" cy="430.61" rx="26.334" ry="25.5"/>
	<path fill="#DFE1DD" d="M355.17,450.277c-9.713,0.309-20.799-6.133-23.695-13.525c0.832,9.525,10.652,18.525,23.695,18.525
		c11.471,0,23.637-10.25,23.637-20.5C373.307,444.277,365.641,449.945,355.17,450.277z"/>
	<g>
		
			<image overflow="visible" enable-background="new    " width="475" height="458" xlink:href="868577EA.png"  transform="matrix(0.237 0 0 0.2374 299.9221 375.7778)">
		</image>
	</g>
</g>
</svg>
